<?xml version="1.0" standalone="no"?>
<!DOCTYPE svg PUBLIC "-//W3C//DTD SVG 20010904//EN"
 "http://www.w3.org/TR/2001/REC-SVG-20010904/DTD/svg10.dtd">
<svg version="1.0" xmlns="http://www.w3.org/2000/svg"
 width="170.000000pt" height="170.000000pt" viewBox="0 0 170.000000 170.000000"
 preserveAspectRatio="xMidYMid meet">
<metadata>
Created by potrace 1.14, written by Peter Selinger 2001-2017
</metadata>
<g transform="translate(0.000000,170.000000) scale(0.100000,-0.100000)"
fill="#000000" stroke="none">
<path d="M930 1662 c-46 -27 -90 -68 -90 -84 0 -5 -4 -7 -9 -3 -5 3 -12 -3
-15 -13 -4 -10 -14 -27 -24 -38 -21 -23 -101 -154 -125 -206 -15 -33 -23 -38
-65 -44 -58 -10 -208 -11 -217 -2 -8 8 15 53 81 156 61 94 74 129 51 138 -9 3
-26 0 -39 -6 -22 -12 -82 -70 -72 -70 3 0 -6 -15 -19 -32 -22 -30 -73 -123
-68 -123 2 0 -3 -13 -10 -28 -10 -22 -18 -28 -36 -24 -33 6 -39 -11 -8 -23 14
-5 24 -14 21 -18 -11 -18 -46 -164 -41 -172 3 -5 2 -11 -2 -13 -7 -5 -8 -18
-4 -92 0 -14 13 -37 28 -51 23 -21 36 -25 78 -23 67 3 118 30 185 98 l55 56 1
-43 c1 -51 21 -92 46 -92 17 0 64 59 70 90 2 8 5 17 8 20 3 3 15 25 27 50 35
70 77 112 115 115 23 2 37 -3 46 -16 14 -20 12 -36 -16 -124 -11 -33 -18 -66
-17 -75 2 -8 4 -20 4 -27 1 -15 48 -30 91 -29 38 2 103 27 114 45 4 6 12 9 17
6 5 -4 9 -1 9 4 0 6 5 11 12 11 6 0 9 -3 5 -6 -3 -4 3 -24 14 -46 24 -46 71
-70 139 -70 62 -1 110 6 110 14 0 3 14 9 30 13 17 4 30 10 30 15 0 4 8 10 18
14 26 8 52 28 83 61 35 38 20 46 -18 10 -15 -14 -41 -33 -58 -42 -16 -9 -32
-20 -35 -24 -3 -5 -17 -10 -30 -11 -14 -2 -28 -7 -32 -12 -3 -5 -34 -10 -69
-10 -55 0 -64 3 -86 28 -18 21 -23 37 -21 64 4 38 4 38 88 47 58 7 73 9 85 16
6 4 23 9 40 13 16 4 32 11 35 15 3 3 18 15 33 25 33 21 61 79 53 111 -3 12
-19 28 -36 35 -105 43 -269 -39 -354 -178 -35 -56 -87 -102 -140 -122 -17 -6
-26 -6 -26 0 0 6 -6 9 -12 8 -24 -5 -19 50 11 116 39 83 40 122 5 160 -24 26
-32 28 -79 24 -29 -2 -60 -11 -69 -19 -52 -43 -97 -98 -127 -155 -18 -35 -34
-64 -35 -64 -3 0 2 58 10 111 7 45 33 118 48 136 6 8 34 29 62 48 28 19 72 56
97 82 48 49 124 153 113 153 -4 0 -1 6 5 14 16 19 24 64 16 93 -10 40 -36 45
-85 15z m34 -88 c-5 -28 -38 -84 -74 -124 -68 -78 -129 -135 -136 -128 -6 7 8
48 17 48 5 0 9 6 9 13 0 16 66 112 102 148 21 21 78 68 85 69 1 0 0 -12 -3
-26z m-346 -377 c-11 -28 -19 -52 -18 -52 1 0 -1 -12 -5 -27 -4 -16 -11 -28
-15 -28 -5 0 -11 -9 -15 -20 -7 -22 -96 -112 -109 -110 -5 1 -12 -3 -15 -9 -4
-6 -26 -14 -48 -17 -33 -4 -45 -2 -62 15 -17 17 -20 30 -17 93 4 80 10 114 31
163 l13 33 78 -2 c43 -1 96 1 118 4 23 3 51 6 62 8 l22 2 -20 -53z m854 14 c3
-1 1 -17 -4 -36 -6 -19 -15 -32 -20 -29 -4 3 -8 1 -8 -5 0 -13 -81 -61 -103
-61 -10 0 -17 -4 -17 -8 0 -5 -6 -9 -12 -10 -13 0 -31 -5 -76 -18 l-23 -7 20
34 c55 94 158 153 243 140z"/>
<path d="M299 853 c-129 -59 -191 -156 -132 -203 38 -30 53 -26 53 15 0 82 87
185 157 185 19 0 36 -6 39 -14 3 -7 -26 -74 -63 -147 -74 -144 -170 -352 -239
-517 -41 -98 -42 -102 -21 -102 52 1 68 23 127 173 87 217 72 209 142 76 115
-219 195 -317 247 -304 46 11 46 22 0 73 -64 70 -101 113 -130 152 -31 42
-139 216 -139 224 0 3 86 48 190 100 188 94 281 151 300 185 14 27 20 71 9 71
-5 0 -36 -20 -68 -44 -62 -45 -244 -155 -363 -219 -79 -43 -80 -54 11 135 33
70 61 133 61 141 0 50 -94 61 -181 20z"/>
<path d="M1564 821 c-18 -11 -45 -37 -60 -58 -16 -21 -32 -40 -35 -43 -6 -5
-61 -101 -128 -222 -17 -32 -29 -58 -27 -58 9 0 -65 -133 -100 -183 -19 -26
-34 -52 -34 -57 0 -6 -4 -10 -8 -10 -5 0 -28 -18 -51 -40 -29 -28 -51 -40 -71
-40 -45 0 -53 26 -37 110 5 28 67 131 82 136 8 4 13 9 11 13 -3 4 16 20 40 35
47 29 109 41 132 23 15 -12 16 -2 1 24 -14 28 -85 23 -149 -10 -47 -24 -140
-105 -140 -122 0 -4 -6 -14 -12 -21 -7 -7 -23 -34 -36 -60 -13 -26 -27 -50
-33 -53 -5 -4 -7 -10 -4 -14 2 -5 -16 -27 -40 -50 -25 -23 -45 -39 -45 -36 0
3 -9 1 -19 -5 -25 -13 -70 6 -73 29 -7 76 -2 95 51 201 44 87 46 99 19 109
-19 7 -28 3 -54 -25 -34 -36 -64 -92 -64 -117 0 -9 -4 -18 -9 -22 -6 -3 -10
-13 -10 -23 0 -9 -3 -45 -7 -79 -6 -60 -5 -64 26 -94 26 -27 36 -31 68 -26 67
9 78 15 132 70 15 15 30 27 32 27 3 0 11 -13 17 -29 7 -15 22 -33 34 -38 31
-14 98 -5 113 15 8 9 14 14 14 9 0 -11 120 109 120 120 0 6 8 17 17 24 9 8 14
10 11 4 -3 -5 -9 -32 -12 -58 -8 -59 14 -102 55 -111 36 -7 110 19 144 50 14
13 31 24 37 24 6 0 9 2 6 5 -3 3 10 21 28 41 33 35 44 64 24 64 -5 0 -10 -4
-10 -9 0 -14 -73 -87 -110 -110 -40 -24 -73 -27 -89 -8 -6 8 -9 16 -7 18 2 2
6 29 9 59 7 65 40 152 98 259 45 82 106 178 126 199 7 7 13 17 13 22 0 5 6 15
13 22 7 7 26 34 40 59 25 43 26 48 12 63 -20 19 -14 20 -51 -3z"/>
<path d="M839 609 c-14 -5 -32 -21 -40 -35 -12 -23 -11 -28 4 -39 10 -7 26
-12 35 -10 9 2 22 4 29 4 11 1 63 47 63 56 0 2 -7 11 -16 19 -17 18 -37 19
-75 5z"/>
</g>
</svg>
